<svg width="187" height="99" viewBox="0 0 187 99" fill="none" xmlns="http://www.w3.org/2000/svg">
<path fill-rule="evenodd" clip-rule="evenodd" d="M183.99 2.55228C184.568 2.55228 184.684 2.43626 184.684 2.08823C184.684 1.8562 184.568 1.74019 184.105 1.74019H183.99V2.55228ZM183.295 1.16013H184.337C185.147 1.16013 185.494 1.39215 185.494 2.08823C185.494 2.55228 185.263 2.7843 184.915 2.90031L185.725 4.29246H184.915L184.221 2.90031H183.99V4.29246H183.295V1.16013ZM182.138 2.7843C182.138 3.94443 183.064 4.98854 184.221 4.98854C185.378 4.98854 186.304 4.06044 186.304 2.7843C186.304 1.62418 185.378 0.696075 184.221 0.696075C183.064 0.580063 182.138 1.62418 182.138 2.7843ZM186.998 2.7843C186.998 4.29246 185.725 5.5686 184.221 5.5686C182.717 5.5686 181.444 4.29246 181.444 2.7843C181.444 1.27614 182.717 0 184.221 0C185.725 0 186.998 1.27614 186.998 2.7843Z" fill="white"/>
<path fill-rule="evenodd" clip-rule="evenodd" d="M125.902 45.4767C125.902 48.145 124.976 50.5813 123.125 52.5535C121.273 54.6417 118.611 56.2659 115.14 57.426C113.983 57.774 110.627 58.7021 105.882 59.9783V52.4375L108.66 51.5094C108.775 55.3378 110.164 56.6139 114.214 55.3378C116.991 54.4097 118.611 52.4375 118.611 50.6973C118.611 49.4211 117.801 48.7251 115.487 48.8411C112.71 48.8411 111.09 48.9571 109.817 48.7251C106.924 48.261 105.767 46.5208 105.767 43.2725C105.767 38.2839 109.007 34.4555 115.14 32.3673C115.719 32.1353 118.843 31.4392 123.125 30.3951V36.8918L121.042 37.5879C120.926 35.3836 120.463 34.5715 119.537 34.2235C118.611 33.8755 117.339 34.2235 115.834 34.6876C114.677 35.0356 113.867 35.6157 113.404 36.3117C112.826 37.0078 112.594 37.7039 112.594 38.4C112.594 39.212 113.057 40.1401 114.677 40.2562C115.603 40.3722 116.876 40.2562 118.264 40.1401C123.472 39.7921 125.902 40.7202 125.902 45.4767ZM80.3087 68.4472L71.9769 71.1155C71.9769 71.1155 72.0926 66.359 72.0926 62.6466V56.1499C72.0926 52.5535 71.1669 51.1613 69.084 51.6254C67.2325 52.0894 65.4967 54.1777 65.4967 58.7021V65.5469C65.4967 68.9112 65.7281 73.2037 65.7281 73.2037L57.3964 75.872C57.3964 75.872 57.5121 70.7674 57.5121 67.4031V60.6744C57.5121 56.962 56.3549 55.8018 54.5034 56.2659C52.3048 56.7299 50.9161 59.5142 50.9161 63.4587V70.3034C50.9161 73.5517 51.0319 77.9602 51.0319 77.9602L42.8159 80.6285C42.8159 80.6285 42.9316 76.104 42.9316 72.1596V64.0387C42.9316 62.6466 42.8159 58.5861 42.8159 58.5861V56.6139C45.1302 55.8018 47.7917 54.7577 51.0319 53.5976V56.2659C52.8834 53.7136 55.3134 51.8574 58.2064 50.9293C60.9837 50.0012 63.5295 50.4653 64.8024 52.6695C67.001 49.3051 69.6626 47.2169 72.7869 46.1728C76.6057 44.8967 78.5729 46.4048 79.2672 47.5649C80.0772 48.7251 80.0772 50.5813 80.0772 53.0175V53.8296V60.7904C80.1929 63.9227 80.3087 68.4472 80.3087 68.4472ZM38.9971 82.0207L30.434 84.805C30.434 84.805 30.6654 79.9324 30.6654 76.336V56.1499C30.6654 53.7136 30.5497 48.7251 30.5497 48.7251C30.5497 48.7251 36.5671 46.5208 38.8814 45.5927V74.3638C38.7657 77.6122 38.9971 82.0207 38.9971 82.0207ZM103.337 44.6646V61.0224L97.7822 62.9946C96.5092 63.4587 95.8149 62.8786 95.8149 61.1384C94.542 63.4587 92.3434 65.0828 89.4504 66.0109C87.3675 66.707 85.8631 66.591 84.706 65.7789C83.0859 64.7348 82.7387 62.9946 82.7387 61.0224C82.7387 57.31 84.2431 54.9897 87.7146 52.7855C92.922 49.4211 95.6992 47.913 95.6992 43.6205C95.6992 42.1124 94.7735 41.5323 93.6163 41.7643C92.5748 41.9963 92.1119 42.5764 91.6491 43.1565C91.3019 43.8525 90.9548 44.7806 90.7233 45.9408C90.4919 46.7529 90.3762 47.4489 90.029 48.029C89.5661 49.0731 88.6404 49.8852 87.5989 50.1172C85.7474 50.5813 84.3588 49.6532 84.3588 47.4489C84.3588 44.2006 87.2518 41.5323 92.922 39.6761C96.0464 38.632 99.4022 37.9359 101.369 38.864C102.642 39.5601 103.337 40.8362 103.337 44.6646ZM95.5835 49.7692C93.8477 51.1613 92.5748 52.3215 91.7648 53.4816C90.839 54.8737 90.4919 56.6139 90.4919 58.8182C90.4919 61.2544 91.6491 61.9505 93.1534 61.4864C94.542 61.0224 95.5835 59.0502 95.5835 54.7577V49.7692ZM150.666 30.8591C150.666 31.6712 150.666 32.4833 150.55 33.4114V33.6434L136.548 38.1679V38.516C136.548 41.8803 136.895 44.2006 137.821 45.4767C138.399 46.2888 139.672 46.8689 141.177 46.4048C143.491 45.5927 145.227 43.6205 145.921 40.7202C146.152 39.7921 146.268 39.096 146.384 38.516C146.5 38.0519 146.847 37.9359 147.31 37.7039C147.657 37.5879 148.583 37.2398 149.045 37.2398C149.508 37.2398 149.74 37.3558 149.855 37.7039C149.971 37.9359 149.971 38.2839 149.971 38.864C149.971 40.9522 149.045 43.0405 147.425 45.0127C145.69 46.8689 143.26 48.6091 140.019 49.6532C135.854 51.0453 132.845 51.0453 130.762 49.7692C128.795 48.493 127.406 45.9408 127.406 40.9522C127.406 32.4833 131.341 27.2628 139.557 24.5945C143.144 23.4343 145.921 23.2023 147.657 24.1304C149.971 25.1745 150.666 27.4948 150.666 30.8591ZM142.334 27.6108C141.871 26.9147 141.177 26.7987 140.135 27.1467C139.557 27.3788 138.978 27.6108 138.631 28.0748C138.168 28.5389 137.821 29.119 137.589 29.815C137.126 31.0912 136.779 32.9474 136.664 35.3836L142.912 33.2954C142.912 32.7153 142.912 32.1353 142.912 31.6712C142.912 29.583 142.681 28.1909 142.334 27.6108ZM28.2353 85.501L19.7879 88.1693L16.8949 79.4684L6.94311 82.7167L4.05015 93.2739L0 94.666C0 94.666 2.89296 86.5451 3.81871 83.6448L9.83607 64.3868C10.5304 62.0665 11.2247 59.8623 11.6876 57.658L18.7464 55.3378C19.5564 58.4701 21.2922 64.2707 23.028 70.1874C24.8795 75.988 26.8467 81.9046 28.2353 85.501ZM12.2662 64.1547L7.98458 79.5844L16.2006 76.9161L12.2662 64.1547ZM177.628 37.0078L177.396 37.1238C177.396 37.1238 171.726 39.096 169.065 40.1401V37.0078C167.56 39.5601 165.246 41.4163 162.006 42.4604C156.799 44.2006 152.517 41.7643 152.517 33.4114C152.517 24.7105 155.757 19.2579 162.006 17.2857C164.899 16.3576 167.213 16.3576 169.065 17.6337V11.137C169.065 7.19259 168.949 3.5962 168.949 3.5962C168.949 3.5962 174.619 1.50798 177.512 0.463867C177.512 0.463867 177.396 3.5962 177.396 6.84455V29.467C177.396 32.2513 177.628 37.0078 177.628 37.0078ZM166.519 19.1419C165.015 19.2579 163.626 20.7661 162.816 22.7383C162.006 24.5945 161.659 27.2628 161.659 30.5111C161.659 37.3558 163.857 37.7039 165.246 37.4719C167.098 37.1238 169.412 34.6876 169.412 25.7546C169.296 20.07 168.255 19.0259 166.519 19.1419Z" fill="white"/>
<path fill-rule="evenodd" clip-rule="evenodd" d="M0.690063 98.6119H178.549C178.897 98.6119 179.244 98.2639 179.244 97.9158V40.1416L0.690063 98.6119Z" fill="white"/>
</svg>
