<svg width="21" height="21" viewBox="0 0 21 21" fill="none" xmlns="http://www.w3.org/2000/svg">
<path d="M18.8394 17.9107L14.7321 13.8042C15.9225 12.375 16.5161 10.5418 16.3894 8.68607C16.2627 6.83031 15.4255 5.09484 14.0518 3.84068C12.6781 2.58652 10.8738 1.91022 9.01424 1.95249C7.15464 1.99475 5.38292 2.75231 4.06765 4.06759C2.75238 5.38286 1.99481 7.15458 1.95255 9.01417C1.91029 10.8738 2.58658 12.6781 3.84074 14.0517C5.09491 15.4254 6.83038 16.2627 8.68614 16.3894C10.5419 16.5161 12.3751 15.9225 13.8043 14.732L17.9108 18.8393C17.9717 18.9003 18.0441 18.9486 18.1238 18.9816C18.2035 19.0146 18.2888 19.0316 18.3751 19.0316C18.4613 19.0316 18.5467 19.0146 18.6263 18.9816C18.706 18.9486 18.7784 18.9003 18.8394 18.8393C18.9003 18.7783 18.9487 18.7059 18.9817 18.6263C19.0147 18.5466 19.0317 18.4612 19.0317 18.375C19.0317 18.2888 19.0147 18.2034 18.9817 18.1237C18.9487 18.0441 18.9003 17.9717 18.8394 17.9107ZM3.28132 9.1875C3.28132 8.01935 3.62771 6.87744 4.2767 5.90616C4.92568 4.93489 5.84811 4.17787 6.92734 3.73084C8.00657 3.28381 9.19412 3.16684 10.3398 3.39474C11.4855 3.62263 12.5379 4.18515 13.3639 5.01115C14.1899 5.83715 14.7524 6.88955 14.9803 8.03525C15.2082 9.18095 15.0913 10.3685 14.6442 11.4477C14.1972 12.5269 13.4402 13.4494 12.4689 14.0984C11.4976 14.7474 10.3557 15.0938 9.18756 15.0938C7.62166 15.092 6.12039 14.4692 5.01313 13.3619C3.90587 12.2547 3.28305 10.7534 3.28132 9.1875Z" fill="#55AB25"/>
</svg>
