<svg width="25" height="25" viewBox="0 0 25 25" fill="none" xmlns="http://www.w3.org/2000/svg">
<path d="M9.5 20.9697C9.5 21.2664 9.41203 21.5564 9.2472 21.8031C9.08238 22.0498 8.84811 22.242 8.57403 22.3555C8.29994 22.4691 7.99834 22.4988 7.70736 22.4409C7.41639 22.383 7.14912 22.2402 6.93934 22.0304C6.72956 21.8206 6.5867 21.5533 6.52882 21.2624C6.47094 20.9714 6.50065 20.6698 6.61418 20.3957C6.72771 20.1216 6.91997 19.8873 7.16665 19.7225C7.41332 19.5577 7.70333 19.4697 8 19.4697C8.39782 19.4697 8.77936 19.6278 9.06066 19.9091C9.34196 20.1904 9.5 20.5719 9.5 20.9697ZM17.75 19.4697C17.4533 19.4697 17.1633 19.5577 16.9166 19.7225C16.67 19.8873 16.4777 20.1216 16.3642 20.3957C16.2506 20.6698 16.2209 20.9714 16.2788 21.2624C16.3367 21.5533 16.4796 21.8206 16.6893 22.0304C16.8991 22.2402 17.1664 22.383 17.4574 22.4409C17.7483 22.4988 18.0499 22.4691 18.324 22.3555C18.5981 22.242 18.8324 22.0498 18.9972 21.8031C19.162 21.5564 19.25 21.2664 19.25 20.9697C19.25 20.5719 19.092 20.1904 18.8107 19.9091C18.5294 19.6278 18.1478 19.4697 17.75 19.4697ZM22.2172 7.69004L19.5425 16.3816C19.4024 16.8423 19.1175 17.2457 18.7301 17.5317C18.3427 17.8178 17.8734 17.9714 17.3919 17.9697H8.38156C7.8931 17.9679 7.41837 17.8079 7.02848 17.5136C6.63858 17.2194 6.35449 16.8068 6.21875 16.3375L2.82687 4.46973H1.25C1.05109 4.46973 0.860322 4.39071 0.71967 4.25006C0.579018 4.1094 0.5 3.91864 0.5 3.71973C0.5 3.52081 0.579018 3.33005 0.71967 3.1894C0.860322 3.04874 1.05109 2.96973 1.25 2.96973H2.82687C3.15257 2.97081 3.46916 3.07734 3.72925 3.27338C3.98934 3.46942 4.17895 3.74442 4.26969 4.05723L5.03 6.71973H21.5C21.6174 6.71968 21.7331 6.74719 21.8379 6.80002C21.9427 6.85286 22.0336 6.92955 22.1034 7.02393C22.1732 7.11832 22.2198 7.22776 22.2396 7.34345C22.2593 7.45914 22.2517 7.57785 22.2172 7.69004ZM20.4847 8.21973H5.45844L7.66062 15.926C7.70543 16.0826 7.80002 16.2204 7.93009 16.3185C8.06016 16.4166 8.21864 16.4697 8.38156 16.4697H17.3919C17.5524 16.4698 17.7086 16.4184 17.8377 16.323C17.9668 16.2277 18.0619 16.0934 18.1091 15.94L20.4847 8.21973Z" fill="#55AB25"/>
</svg>
