<svg width="25" height="25" viewBox="0 0 25 25" fill="none" xmlns="http://www.w3.org/2000/svg">
<path d="M22.1486 20.5947C20.7208 18.1263 18.5205 16.3563 15.9527 15.5172C17.2229 14.7611 18.2097 13.6089 18.7617 12.2377C19.3136 10.8664 19.4002 9.35185 19.0081 7.92662C18.616 6.50139 17.7668 5.24428 16.5911 4.34834C15.4154 3.4524 13.9781 2.96717 12.4999 2.96717C11.0217 2.96717 9.58438 3.4524 8.40866 4.34834C7.23294 5.24428 6.38382 6.50139 5.99171 7.92662C5.59959 9.35185 5.68616 10.8664 6.23813 12.2377C6.79009 13.6089 7.77692 14.7611 9.04708 15.5172C6.47926 16.3553 4.27895 18.1253 2.85114 20.5947C2.79878 20.6801 2.76405 20.7751 2.749 20.8741C2.73394 20.9731 2.73888 21.0742 2.7635 21.1712C2.78813 21.2683 2.83195 21.3595 2.89238 21.4394C2.95281 21.5192 3.02862 21.5862 3.11535 21.6363C3.20207 21.6864 3.29795 21.7186 3.39733 21.731C3.49671 21.7435 3.59757 21.7359 3.69397 21.7087C3.79037 21.6815 3.88034 21.6353 3.95859 21.5728C4.03684 21.5103 4.10178 21.4327 4.14958 21.3447C5.91583 18.2922 9.0377 16.4697 12.4999 16.4697C15.9621 16.4697 19.084 18.2922 20.8502 21.3447C20.898 21.4327 20.9629 21.5103 21.0412 21.5728C21.1194 21.6353 21.2094 21.6815 21.3058 21.7087C21.4022 21.7359 21.5031 21.7435 21.6024 21.731C21.7018 21.7186 21.7977 21.6864 21.8844 21.6363C21.9712 21.5862 22.047 21.5192 22.1074 21.4394C22.1678 21.3595 22.2116 21.2683 22.2363 21.1712C22.2609 21.0742 22.2658 20.9731 22.2508 20.8741C22.2357 20.7751 22.201 20.6801 22.1486 20.5947ZM7.24989 9.71973C7.24989 8.68137 7.55779 7.66634 8.13467 6.80298C8.71155 5.93962 9.53149 5.26672 10.4908 4.86936C11.4501 4.472 12.5057 4.36803 13.5241 4.5706C14.5425 4.77317 15.478 5.27319 16.2122 6.00741C16.9464 6.74164 17.4464 7.6771 17.649 8.6955C17.8516 9.7139 17.7476 10.7695 17.3503 11.7288C16.9529 12.6881 16.28 13.5081 15.4166 14.0849C14.5533 14.6618 13.5382 14.9697 12.4999 14.9697C11.108 14.9682 9.77347 14.4146 8.78922 13.4304C7.80498 12.4461 7.25138 11.1117 7.24989 9.71973Z" fill="#55AB25"/>
</svg>
